HIERARCHY
ROOT hip
{
  OFFSET 0 0 0
  CHANNELS 6 Xposition Yposition Zposition Zrotation Yrotation Xrotation
  JOINT abdomen
  {
    OFFSET 0 20.6881 -0.73152
    CHANNELS 3 Zrotation Xrotation Yrotation
    JOINT chest
    {
      OFFSET 0 11.7043 -0.48768
      CHANNELS 3 Zrotation Xrotation Yrotation
      JOINT neck
      {
        OFFSET 0 22.1894 -2.19456
        CHANNELS 3 Zrotation Xrotation Yrotation
        JOINT head
        {
          OFFSET -0.24384 7.07133 1.2192
          CHANNELS 3 Zrotation Xrotation Yrotation
          JOINT leftEye
          {
            OFFSET 4.14528 8.04674 8.04672
            CHANNELS 3 Zrotation Xrotation Yrotation
            End Site
            {
              OFFSET 1 0 0
            }
          }
          JOINT rightEye
          {
            OFFSET -3.6576 8.04674 8.04672
            CHANNELS 3 Zrotation Xrotation Yrotation
            End Site
            {
              OFFSET 1 0 0
            }
          }
        }
      }
      JOINT rCollar
      {
        OFFSET -2.68224 19.2634 -4.8768
        CHANNELS 3 Zrotation Xrotation Yrotation
        JOINT rShldr
        {
          OFFSET -8.77824 -1.95073 1.46304
          CHANNELS 3 Zrotation Xrotation Yrotation
          JOINT rForeArm
          {
            OFFSET -28.1742 -1.7115 0.48768
            CHANNELS 3 Zrotation Xrotation Yrotation
            JOINT rHand
            {
              OFFSET -22.5879 0.773209 7.07136
              CHANNELS 3 Zrotation Xrotation Yrotation
              JOINT rThumb1
              {
                OFFSET -1.2192 -0.487915 3.41376
                CHANNELS 3 Zrotation Xrotation Yrotation
                JOINT rThumb2
                {
                  OFFSET -3.37035 -0.52449 3.41376
                  CHANNELS 3 Zrotation Xrotation Yrotation
                  End Site
                  {
                    OFFSET -1.78271 -1.18214 1.43049
                  }
                }
              }
              JOINT rIndex1
              {
                OFFSET -7.75947 0.938293 5.60832
                CHANNELS 3 Zrotation Xrotation Yrotation
                JOINT rIndex2
                {
                  OFFSET -2.54057 -0.884171 1.56538
                  CHANNELS 3 Zrotation Xrotation Yrotation
                  End Site
                  {
                    OFFSET -1.62519 -0.234802 1.16502
                  }
                }
              }
              JOINT rMid1
              {
                OFFSET -8.24714 1.18213 3.41376
                CHANNELS 3 Zrotation Xrotation Yrotation
                JOINT rMid2
                {
                  OFFSET -3.10165 -0.590103 1.0647
                  CHANNELS 3 Zrotation Xrotation Yrotation
                  End Site
                  {
                    OFFSET -2.48547 -0.328903 0.83742
                  }
                }
              }
              JOINT rRing1
              {
                OFFSET -8.82822 0.546677 1.51678
                CHANNELS 3 Zrotation Xrotation Yrotation
                JOINT rRing2
                {
                  OFFSET -2.60934 -0.819778 -0.0198488
                  CHANNELS 3 Zrotation Xrotation Yrotation
                  End Site
                  {
                    OFFSET -2.33842 -0.294052 0.168128
                  }
                }
              }
              JOINT rPinky1
              {
                OFFSET -8.27202 -0.0477905 -0.4584
                CHANNELS 3 Zrotation Xrotation Yrotation
                JOINT rPinky2
                {
                  OFFSET -1.82734 -0.647385 -0.700984
                  CHANNELS 3 Zrotation Xrotation Yrotation
                  End Site
                  {
                    OFFSET -1.69225 -0.51767 -0.607171
                  }
                }
              }
            }
          }
        }
      }
      JOINT lCollar
      {
        OFFSET 2.68224 19.2634 -4.8768
        CHANNELS 3 Zrotation Xrotation Yrotation
        JOINT lShldr
        {
          OFFSET 8.77824 -1.95073 1.46304
          CHANNELS 3 Zrotation Xrotation Yrotation
          JOINT lForeArm
          {
            OFFSET 28.1742 -1.7115 0.48768
            CHANNELS 3 Zrotation Xrotation Yrotation
            JOINT lHand
            {
              OFFSET 22.5879 0.773209 7.07136
              CHANNELS 3 Zrotation Xrotation Yrotation
              JOINT lThumb1
              {
                OFFSET 1.2192 -0.487915 3.41376
                CHANNELS 3 Zrotation Xrotation Yrotation
                JOINT lThumb2
                {
                  OFFSET 3.37035 -0.52449 3.41376
                  CHANNELS 3 Zrotation Xrotation Yrotation
                  End Site
                  {
                    OFFSET 1.78271 -1.18214 1.43049
                  }
                }
              }
              JOINT lIndex1
              {
                OFFSET 7.75947 0.938293 5.60832
                CHANNELS 3 Zrotation Xrotation Yrotation
                JOINT lIndex2
                {
                  OFFSET 2.54057 -0.884171 1.56538
                  CHANNELS 3 Zrotation Xrotation Yrotation
                  End Site
                  {
                    OFFSET 1.62519 -0.234802 1.16502
                  }
                }
              }
              JOINT lMid1
              {
                OFFSET 8.24714 1.18213 3.41376
                CHANNELS 3 Zrotation Xrotation Yrotation
                JOINT lMid2
                {
                  OFFSET 3.10165 -0.590103 1.0647
                  CHANNELS 3 Zrotation Xrotation Yrotation
                  End Site
                  {
                    OFFSET 2.48547 -0.328903 0.83742
                  }
                }
              }
              JOINT lRing1
              {
                OFFSET 8.82822 0.546677 1.51678
                CHANNELS 3 Zrotation Xrotation Yrotation
                JOINT lRing2
                {
                  OFFSET 2.60934 -0.819778 -0.0198488
                  CHANNELS 3 Zrotation Xrotation Yrotation
                  End Site
                  {
                    OFFSET 2.33842 -0.294052 0.168128
                  }
                }
              }
              JOINT lPinky1
              {
                OFFSET 8.27202 -0.0477905 -0.4584
                CHANNELS 3 Zrotation Xrotation Yrotation
                JOINT lPinky2
                {
                  OFFSET 1.82734 -0.647385 -0.700984
                  CHANNELS 3 Zrotation Xrotation Yrotation
                  End Site
                  {
                    OFFSET 1.69225 -0.51767 -0.607171
                  }
                }
              }
            }
          }
        }
      }
    }
  }
  JOINT rButtock
  {
    OFFSET -8.77824 4.35084 1.2192
    CHANNELS 3 Zrotation Xrotation Yrotation
    JOINT rThigh
    {
      OFFSET 0 -1.70687 -2.19456
      CHANNELS 3 Zrotation Xrotation Yrotation
      JOINT rShin
      {
        OFFSET 0 -36.8199 0.73152
        CHANNELS 3 Zrotation Xrotation Yrotation
        JOINT rFoot
        {
          OFFSET 0.73152 -45.1104 -5.12064
          CHANNELS 3 Zrotation Xrotation Yrotation
          End Site
          {
            OFFSET -1.1221 -3.69964 12.103
          }
        }
      }
    }
  }
  JOINT lButtock
  {
    OFFSET 8.77824 4.35084 1.2192
    CHANNELS 3 Zrotation Xrotation Yrotation
    JOINT lThigh
    {
      OFFSET 0 -1.70687 -2.19456
      CHANNELS 3 Zrotation Xrotation Yrotation
      JOINT lShin
      {
        OFFSET 0 -36.8199 0.73152
        CHANNELS 3 Zrotation Xrotation Yrotation
        JOINT lFoot
        {
          OFFSET -0.73152 -45.1104 -5.12064
          CHANNELS 3 Zrotation Xrotation Yrotation
          End Site
          {
            OFFSET 1.1221 -3.69964 12.103
          }
        }
      }
    }
  }
}
MOTION
Frames:	6
Frame Time:	0.00833333
-100.915 75.8171 -4.07788 79.704 79.6294 96.698 -9.88924 21.0564 -3.86569 8.09035 -3.50862 -1.06547 6.50556 -8.95256 5.78474 -9.8469 -11.6311 7.87957 -0.0 0.0 0.0 -0.0 0.0 0.0 -5.01227e-14 1.50169e-12 -1.06363e-13 104.962 43.6809 -56.7887 -27.8226 -29.6453 66.6887 -0.956869 -26.629 -4.0409 -1.57243e-09 3.16673e-10 4.22083e-10 -2.71903e-09 5.50402e-10 6.91367e-10 -1.57243e-09 3.16674e-10 4.22086e-10 7.73091 5.47488 0.417314 -1.57244e-09 3.16676e-10 4.22087e-10 2.90554 0.965183 0.102902 -1.57243e-09 3.16676e-10 4.22076e-10 10.2786 0.731801 0.0259123 -1.57244e-09 3.16678e-10 4.22079e-10 2.22167 -0.733487 -0.20892 -5.00556e-14 1.50168e-12 -1.0651e-13 -78.5197 65.6686 1.56013 28.2068 -39.1552 -82.4132 0.113684 -9.61224 1.36368 -1.0403e-09 -6.13229e-09 5.58042e-09 -1.84092e-09 -1.06338e-08 9.64791e-09 -1.04031e-09 -6.13229e-09 5.58043e-09 -7.73091 5.47488 -0.417314 -1.0403e-09 -6.13229e-09 5.58042e-09 -2.90554 0.965183 -0.102902 -1.0403e-09 -6.13229e-09 5.58042e-09 -10.2786 0.731801 -0.0259123 -1.04029e-09 -6.13229e-09 5.58041e-09 -2.22167 -0.733487 0.20892 -2.03217e-16 0.0 -3.88251e-19 -13.1853 -49.0254 -8.66489 -0.993942 57.6494 1.08132 -4.43968 -23.0183 -8.5893 2.03217e-16 0.0 3.88251e-19 -10.8598 5.01912 -2.61952 0.288044 36.3196 -0.551241 0.547335 4.90905 4.02222
-99.5454 75.5063 -3.96231 77.9898 80.0819 94.7095 -9.09556 21.6853 -3.14835 7.89649 -3.52387 -0.822375 6.60616 -8.63709 5.68525 -10.2017 -12.7994 7.56011 -0.0 0.0 0.0 -0.0 0.0 0.0 -1.39886e-13 1.93867e-12 -1.10826e-13 102.836 44.1717 -53.3447 -27.8337 -29.7036 66.7851 -0.942868 -26.4514 -4.00962 -1.40781e-09 1.70323e-10 -7.59773e-12 -2.4275e-09 2.9589e-10 -4.6875e-11 -1.4078e-09 1.70323e-10 -7.59637e-12 7.73091 5.47488 0.417314 -1.40781e-09 1.70325e-10 -7.59715e-12 2.90554 0.965183 0.102902 -1.4078e-09 1.70325e-10 -7.60125e-12 10.2786 0.731801 0.0259123 -1.40781e-09 1.70327e-10 -7.59517e-12 2.22167 -0.733487 -0.20892 -1.39912e-13 1.93867e-12 -1.10975e-13 -80.7525 65.6699 3.97902 28.2712 -38.555 -81.409 0.131849 -10.3488 1.47038 -6.56074e-10 -5.11094e-09 4.97754e-09 -1.17451e-09 -8.8687e-09 8.60937e-09 -6.5608e-10 -5.11095e-09 4.97755e-09 -7.73091 5.47488 -0.417314 -6.56075e-10 -5.11095e-09 4.97754e-09 -2.90554 0.965183 -0.102902 -6.56076e-10 -5.11095e-09 4.97754e-09 -10.2786 0.731801 -0.0259123 -6.56066e-10 -5.11095e-09 4.97752e-09 -2.22167 -0.733487 0.20892 -2.03217e-16 0.0 -3.88251e-19 -11.1957 -47.6693 -6.71768 -0.993552 57.5002 1.03424 -4.63784 -23.6164 -8.90289 2.03217e-16 0.0 3.88251e-19 -10.3466 3.06064 -2.05251 0.391664 41.3634 -0.642088 0.580106 4.64208 4.59917
-98.1645 75.1229 -3.76639 75.5377 80.8503 91.932 -8.04738 22.3731 -2.38046 7.61039 -3.58027 -0.549062 6.68278 -8.31423 5.56287 -10.4845 -14.0023 7.20961 -0.0 0.0 0.0 -0.0 0.0 0.0 -2.18939e-13 2.12919e-12 -1.01968e-13 100.609 44.6086 -49.7008 -27.8469 -29.7703 66.8896 -0.932217 -26.3166 -3.98588 -1.1631e-09 1.0985e-12 -5.21956e-10 -1.99635e-09 1.64856e-12 -9.29317e-10 -1.1631e-09 1.09805e-12 -5.21958e-10 7.73091 5.47488 0.417314 -1.16311e-09 1.09895e-12 -5.21959e-10 2.90554 0.965183 0.102902 -1.1631e-09 1.09919e-12 -5.21957e-10 10.2786 0.731801 0.0259123 -1.16311e-09 1.10087e-12 -5.21948e-10 2.22167 -0.733487 -0.20892 -2.1906e-13 2.12919e-12 -1.02119e-13 -82.9906 65.4975 6.36857 28.3315 -37.8767 -80.2584 0.153443 -11.1247 1.58348 -1.67334e-10 -3.64086e-09 3.92537e-09 -3.23932e-10 -6.32558e-09 6.79436e-09 -1.67337e-10 -3.64087e-09 3.92539e-09 -7.73091 5.47488 -0.417314 -1.67335e-10 -3.64087e-09 3.92538e-09 -2.90554 0.965183 -0.102902 -1.67333e-10 -3.64087e-09 3.92537e-09 -10.2786 0.731801 -0.0259123 -1.67326e-10 -3.64087e-09 3.92536e-09 -2.22167 -0.733487 0.20892 -2.03217e-16 0.0 -3.88251e-19 -8.93142 -46.2697 -4.73727 -0.993145 57.3619 0.992636 -4.86815 -24.2391 -9.26115 2.03217e-16 0.0 3.88251e-19 -9.4822 0.992244 -1.31703 0.525942 46.541 -0.766666 0.61883 4.32334 5.07362
-96.7402 74.6881 -3.51262 71.167 81.8463 87.119 -6.58321 23.0725 -1.63139 7.22038 -3.72018 -0.252299 6.69356 -8.0103 5.42751 -10.6602 -15.1009 6.8789 -0.0 0.0 0.0 -0.0 0.0 0.0 -2.60721e-13 2.07884e-12 -8.89561e-14 98.3429 45.05 -46.0094 -27.8708 -29.8912 67.0752 -0.923401 -26.2035 -3.96604 -9.14958e-10 -1.16777e-10 -7.4231e-10 -1.5649e-09 -2.0311e-10 -1.30398e-09 -9.14955e-10 -1.16778e-10 -7.42316e-10 7.73091 5.47488 0.417314 -9.14958e-10 -1.16778e-10 -7.42316e-10 2.90554 0.965183 0.102902 -9.14956e-10 -1.16778e-10 -7.4231e-10 10.2786 0.731801 0.0259123 -9.14967e-10 -1.16776e-10 -7.423e-10 2.22167 -0.733487 -0.20892 -2.60907e-13 2.07884e-12 -8.91052e-14 -85.3546 65.0508 8.7981 28.3939 -37.1345 -78.9241 0.17452 -11.8213 1.6856 1.67552e-10 -2.43269e-09 2.91467e-09 2.61902e-10 -4.23369e-09 5.0495e-09 1.67551e-10 -2.4327e-09 2.91468e-09 -7.73091 5.47488 -0.417314 1.67552e-10 -2.4327e-09 2.91467e-09 -2.90554 0.965183 -0.102902 1.67554e-10 -2.4327e-09 2.91467e-09 -10.2786 0.731801 -0.0259123 1.6756e-10 -2.4327e-09 2.91465e-09 -2.22167 -0.733487 0.20892 -2.03217e-16 0.0 -3.88251e-19 -6.30745 -44.8524 -2.91853 -0.996121 57.3185 0.965427 -5.06266 -24.9613 -9.4985 2.03217e-16 0.0 3.88251e-19 -8.10644 -1.19408 -0.422325 0.694866 51.6443 -0.930815 0.641858 4.11441 5.16008
-95.3807 74.195 -3.19267 65.181 83.1558 80.8034 -4.46805 23.8011 -0.889864 6.68111 -4.00469 0.0866044 6.57676 -7.67371 5.26135 -10.6423 -16.1477 6.56989 -0.0 0.0 0.0 -0.0 0.0 0.0 -2.44113e-13 1.65388e-12 -6.94578e-14 96.0553 45.5252 -42.3489 -27.9086 -30.0888 67.383 -0.920181 -26.1594 -3.95841 -5.72173e-10 -1.2486e-10 -3.08306e-10 -9.82731e-10 -2.16447e-10 -5.46729e-10 -5.72168e-10 -1.2486e-10 -3.0832e-10 7.73091 5.47488 0.417314 -5.72172e-10 -1.2486e-10 -3.08313e-10 2.90554 0.965183 0.102902 -5.72169e-10 -1.24861e-10 -3.08308e-10 10.2786 0.731801 0.0259123 -5.72181e-10 -1.24858e-10 -3.08301e-10 2.22167 -0.733487 -0.20892 -2.44317e-13 1.65388e-12 -6.95933e-14 -87.8592 64.2797 11.2214 28.442 -36.2678 -77.3856 0.192809 -12.4024 1.77113 2.36668e-10 -1.5322e-09 1.73259e-09 3.92938e-10 -2.67042e-09 3.0057e-09 2.36668e-10 -1.5322e-09 1.7326e-09 -7.73091 5.47488 -0.417314 2.36669e-10 -1.5322e-09 1.73259e-09 -2.90554 0.965183 -0.102902 2.3667e-10 -1.5322e-09 1.73259e-09 -10.2786 0.731801 -0.0259123 2.36676e-10 -1.5322e-09 1.73257e-09 -2.22167 -0.733487 0.20892 -2.03217e-16 0.0 -3.88251e-19 -3.00464 -43.5041 -1.20655 -1.00839 57.4773 0.956318 -5.19556 -25.8577 -9.55259 2.03217e-16 0.0 3.88251e-19 -5.96403 -3.4834 0.6914 1.05212 56.7376 -1.17244 1.18266 2.1975 6.26759
-94.0448 73.7022 -2.75799 54.3973 84.7715 69.7246 -1.85634 24.5732 -0.12661 6.01651 -4.39454 0.464691 6.37267 -7.30982 5.06609 -10.4746 -17.1866 6.2586 -0.0 0.0 0.0 -0.0 0.0 0.0 -1.87958e-13 8.96411e-13 -4.01762e-14 93.6891 46.01 -38.6149 -27.9528 -30.3323 67.7697 -0.921836 -26.178 -3.96177 -1.31091e-10 -7.56193e-11 4.91634e-10 -2.38071e-10 -1.29768e-10 8.44613e-10 -1.31085e-10 -7.56184e-11 4.91611e-10 7.73091 5.47488 0.417314 -1.3109e-10 -7.56182e-11 4.91626e-10 2.90554 0.965183 0.102902 -1.31083e-10 -7.56196e-11 4.91628e-10 10.2786 0.731801 0.0259123 -1.31097e-10 -7.56172e-11 4.91631e-10 2.22167 -0.733487 -0.20892 -1.88155e-13 8.96411e-13 -4.02912e-14 -90.3277 63.2483 13.5176 28.4456 -35.2563 -75.7122 0.210025 -12.9327 1.84948 1.92153e-10 -6.08281e-10 2.31965e-10 3.32053e-10 -1.06361e-09 4.09734e-10 1.92151e-10 -6.08283e-10 2.31981e-10 -7.73091 5.47488 -0.417314 1.92155e-10 -6.08281e-10 2.31966e-10 -2.90554 0.965183 -0.102902 1.92151e-10 -6.08279e-10 2.31965e-10 -10.2786 0.731801 -0.0259123 1.92158e-10 -6.08279e-10 2.31952e-10 -2.22167 -0.733487 0.20892 -2.03217e-16 0.0 -3.88251e-19 0.847995 -42.1881 0.48257 -1.02631 57.7653 0.960003 -5.29965 -26.8712 -9.51672 2.03217e-16 0.0 3.88251e-19 -3.16101 -5.87339 2.01709 1.60265 61.8913 -1.53137 2.22481 -0.877076 8.06382
